<svg width="496" height="257" viewBox="0 0 496 257" fill="none" xmlns="http://www.w3.org/2000/svg">
<path d="M178.853 114.674C177.224 114.511 175.595 114.349 173.829 114.173C173.042 115.549 172.27 116.992 171.411 118.382C168.426 123.216 165.485 128.079 162.39 132.841C158.547 138.753 154.641 144.628 150.624 150.423C146.88 155.825 142.962 161.108 139.104 166.431C137.696 168.373 136.121 170.203 134.828 172.216C131.216 177.841 120.896 179.974 114.412 173.305C112.274 171.106 110.888 168.458 109.55 165.766C108.188 163.026 107.586 160.065 107.424 157.054C107.337 155.439 107.608 153.773 107.937 152.175C109.199 146.029 111.529 140.25 114.265 134.635C118.5 125.941 123.323 117.57 128.722 109.555C130.185 107.382 132.256 105.552 134.283 103.844C136.425 102.039 139.458 102.45 141.277 104.526C141.597 104.891 141.764 105.545 141.726 106.044C141.579 107.949 141.446 109.87 141.079 111.74C139.581 119.381 136.659 126.551 133.752 133.732C131.851 138.429 130.078 143.181 128.357 147.948C126.301 153.642 125.385 159.62 124.181 165.524C124.132 165.762 124.175 166.02 124.175 166.589C128.487 162.977 132.606 159.574 135.729 155.196C139.149 150.402 142.397 145.485 145.734 140.631C146.665 139.276 147.693 137.987 148.592 136.612C150.165 134.207 151.605 131.714 153.223 129.341C155.577 125.889 158.089 122.545 160.437 119.089C162.238 116.439 163.888 113.687 165.672 110.875C163.482 109.354 155.011 108.184 155.31 99.1021C155.463 97.8101 155.6 96.5131 155.817 95.2311C157.198 87.0621 165.065 79.6711 173.028 79.0291C175.297 78.8461 177.39 79.3291 179.247 80.6661C179.597 80.9181 179.839 81.3181 180.371 81.9231C177.893 81.9591 176.961 83.5681 176.059 85.1291C173.202 90.0771 169.912 95.7411 171.176 101.519C171.468 102.852 173.995 106.945 174.225 107.74C177.75 107.945 181.021 108.135 184.447 108.334C184.891 107.741 185.381 107.005 185.951 106.338C189.233 102.494 193.396 100.327 198.451 100.091C204.263 99.8191 210.081 99.6861 216.134 99.4851C217.605 96.5151 219.134 93.2361 220.834 90.0491C222.766 86.4271 224.803 82.8591 226.89 79.3231C227.908 77.5991 229.323 76.1801 231.056 75.1271C232.796 74.0701 235.461 74.5161 236.595 76.1731C236.942 76.6801 237.022 77.4931 236.952 78.1361C236.781 79.6981 236.578 81.2781 236.161 82.7881C234.392 89.1911 232.54 95.5701 230.721 101.959C230.612 102.342 230.522 102.73 230.377 103.294C234.756 103.838 238.998 104.365 243.399 104.912C243.684 104.099 243.976 103.348 244.213 102.58C246.135 96.3441 248.598 90.3291 251.562 84.5191C255.554 76.6951 261.272 70.2791 267.996 64.7381C271.156 62.1341 274.841 60.3881 278.85 59.5751C281.745 58.9881 284.716 59.0391 287.57 60.0611C288.471 60.3841 289.348 60.7751 290.225 61.1591C297.098 64.1701 298.844 70.7641 297.522 76.6521C296.104 82.9721 293.342 88.6621 289.495 93.8451C285.964 98.6011 281.915 102.86 277.346 106.638C273.842 109.535 269.897 111.496 265.46 112.422C264.314 112.661 263.678 113.069 263.434 114.31C262.482 119.149 261.364 123.956 260.434 128.798C260.167 130.191 260.253 131.667 260.313 133.1C260.341 133.769 260.691 134.425 261.076 135.071C262.467 131.896 264.203 129.049 266.291 126.443C270.356 121.367 275.341 117.772 281.969 116.756C288.616 115.737 294.92 119.762 296.212 126.966C296.925 130.943 296.787 134.904 295.428 138.735C293.07 145.383 290.679 152.021 288.203 158.625C286.082 164.28 284.096 169.965 283.116 175.948C282.73 178.304 282.453 180.674 282.637 183.32C283.217 183.054 283.714 182.969 283.991 182.676C285.491 181.087 287.186 179.605 288.346 177.788C290.292 174.738 291.918 171.479 293.597 168.265C293.874 167.734 293.923 166.932 293.757 166.346C292.661 162.466 292.777 158.559 293.877 154.775C296.255 146.595 299.185 138.635 304.544 131.819C307.169 128.48 309.651 125.023 312.388 121.778C315.832 117.694 319.946 114.5 325.068 112.621C330.36 110.68 335.284 111.502 340.114 113.98C340.651 114.255 341.155 114.593 341.804 114.978C342.099 114.356 342.38 113.832 342.603 113.285C347.162 102.092 352.654 91.3691 359.026 81.1081C360.792 78.2641 362.835 75.5771 364.913 72.9461C366.916 70.4121 369.534 70.3341 371.811 72.5721C372.098 72.8541 372.286 73.4321 372.23 73.8311C372.087 74.8401 371.895 75.8721 371.518 76.8131C368.815 83.5511 366.095 90.2821 363.317 96.9891C356.626 113.144 350.882 129.637 345.715 146.332C343.44 153.684 342.355 161.288 341.298 169.306C341.873 168.761 342.221 168.513 342.462 168.186C343.071 167.358 343.635 166.498 344.209 165.646C347.387 160.93 350.568 156.216 353.734 151.491C354.266 150.697 354.836 149.901 355.203 149.028C357.923 142.557 361.535 136.571 365.28 130.673C368.269 125.967 371.728 121.592 376.392 118.41C378.237 117.152 380.329 116.223 382.385 115.317C384.007 114.602 385.762 114.197 387.429 113.575C390.381 112.473 393.365 112.547 396.315 113.406C399.797 114.419 401.746 117.124 402.707 120.356C404.329 125.815 403.406 131.069 400.591 135.998C399.997 137.038 399.169 137.933 399.588 139.372C399.766 139.98 399.263 140.806 399.019 141.516C396.978 147.48 394.746 153.401 393.88 159.681C393.488 162.52 393.377 165.418 393.413 168.285C393.432 169.809 394.038 171.325 394.422 173.037C395.116 172.75 395.612 172.672 395.93 172.391C397.515 170.992 399.343 169.747 400.549 168.064C403.056 164.563 405.234 160.825 407.52 157.167C407.766 156.774 407.925 156.278 407.969 155.815C408.565 149.528 410.66 143.651 413.07 137.9C414.814 133.739 416.845 129.69 418.903 125.67C420.789 121.985 423.398 118.791 426.274 115.828C428.345 113.695 430.148 113.467 432.71 114.953C433.531 115.429 434.319 115.962 435.16 116.493C435.438 118.595 434.778 120.551 434.215 122.52C432.274 129.302 430.222 136.055 428.421 142.874C426.984 148.313 426.258 153.895 425.833 159.509C425.805 159.882 425.829 160.259 425.829 161.113C426.615 160.28 427.182 159.81 427.589 159.227C429.744 156.141 432.024 153.126 433.958 149.905C439.671 140.391 445.27 130.808 450.83 121.204C451.491 120.062 451.693 118.636 452.011 117.319C452.579 114.973 453.33 114.276 455.599 115C458.811 116.025 461.687 117.402 462.541 121.374C464.039 128.338 464.689 135.334 464.137 142.41C463.675 148.338 462.923 154.244 462.288 160.27C462.412 160.247 462.688 160.276 462.855 160.155C468.284 156.199 473.713 152.263 478.222 147.191C483.725 141 486.829 133.736 488.214 125.677C488.665 123.052 488.783 120.371 489.118 117.724C489.204 117.043 489.536 116.393 489.814 115.549C492.681 116.934 494.631 118.601 495.12 121.659C497.161 134.43 494.469 145.799 485.132 155.131C482.52 157.742 479.702 160.167 476.826 162.489C471.28 166.967 465.647 171.339 459.999 175.688C458.847 176.575 458.134 177.561 457.787 178.98C455.324 189.049 452.025 198.85 447.797 208.308C446.014 212.297 443.984 216.232 441.588 219.878C436.748 227.244 429.836 231.59 421.024 232.772C416.428 233.388 412.348 232.286 408.755 229.304C407.826 228.533 406.745 227.897 405.645 227.393C403.995 226.637 402.972 225.417 402.746 223.68C402.12 218.862 402.227 214.114 404.448 209.623C407.196 204.067 411.006 199.315 415.731 195.374C419.09 192.572 422.744 190.121 426.293 187.549C429.843 184.976 433.42 182.44 436.998 179.907C437.873 179.287 438.423 178.53 438.714 177.465C440.068 172.511 441.495 167.578 442.895 162.64C442.932 162.429 442.97 162.214 443.007 162C444.688 157.127 445.415 153.49 444.767 152.309C444.393 153.067 444.058 153.693 443.77 154.34C441.901 158.533 440.026 162.732 437.278 166.44C435.939 168.247 434.413 169.922 432.901 171.593C429.068 175.826 421.061 176.307 416.529 172.622C415.892 172.104 415.284 171.542 414.608 171.081C413.951 170.633 413.223 170.288 412.473 169.868C411.858 170.75 411.37 171.486 410.847 172.195C405.903 178.89 396.555 180.334 389.828 175.464C389.001 174.865 388.066 174.412 387.263 173.785C386.043 172.831 384.894 171.785 383.574 170.657C383.262 170.896 382.733 171.301 382.204 171.706C376.397 176.14 368.031 176.612 362.129 172.889C360.207 171.677 358.82 170.067 357.904 168C357.566 167.237 357.088 166.536 356.465 165.44C355.797 167.013 355.398 168.168 354.833 169.235C353.779 171.227 352.732 173.237 351.493 175.114C349.431 178.239 346.402 179.747 342.684 180.022C339.311 180.272 336.15 179.885 333.337 177.764C331.29 176.221 330.172 174.248 329.926 171.718C329.805 170.471 329.582 169.234 329.405 167.993C329.254 167.969 329.103 167.945 328.953 167.922C328.667 168.333 328.37 168.736 328.097 169.156C326.906 170.991 325.79 172.879 324.521 174.658C322.305 177.767 319.16 179.243 315.407 179.48C314.042 179.566 312.669 179.55 311.3 179.55C308.093 179.55 305.277 178.439 302.76 176.499C302.282 176.13 301.81 175.754 301.336 175.383C300.264 178.207 299.238 180.91 298.212 183.613C298.041 183.822 297.856 184.022 297.701 184.242C292.179 192.054 281.66 193.253 274.557 186.878C274.254 186.459 273.951 186.04 273.649 185.621C273.19 184.722 272.731 183.823 272.272 182.924C271.953 181.883 271.716 180.807 271.299 179.806C269.688 175.935 269.799 171.957 270.367 167.915C271.26 161.558 273.665 155.664 275.79 149.675C278.418 142.267 280.964 134.829 283.454 127.374C283.898 126.045 283.898 124.568 284.103 123.159C283.993 123.03 283.883 122.901 283.774 122.772C283.025 123.017 282.187 123.121 281.544 123.532C279.155 125.06 277.253 127.114 275.557 129.373C271.189 135.188 268.2 141.69 266.185 148.63C265.121 152.294 264.394 156.057 263.54 159.781C263.452 160.165 263.538 160.588 263.544 160.993C263.513 161.551 263.483 162.109 263.452 162.667C263.443 166.092 263.434 169.518 263.425 172.943C263.461 173.229 263.497 173.514 263.533 173.8C263.629 174.935 263.724 176.069 263.844 177.492C261.513 177.924 259.133 178.363 256.754 178.807C256.296 178.893 255.841 178.997 255.385 179.092C254.425 179.112 253.465 179.132 252.505 179.152C250.69 178.919 248.867 178.735 247.062 178.441C244.665 178.05 242.884 176.499 241.126 175C240.695 174.632 240.497 173.826 240.448 173.201C239.979 167.285 239.017 161.402 239.2 155.439C239.206 155.244 239.107 155.046 239.057 154.849C239.034 154.428 239.01 154.008 238.987 153.587C238.96 152.771 238.932 151.956 238.904 151.14C238.904 150.415 238.904 149.689 238.904 148.963C238.759 148.951 238.614 148.939 238.469 148.928C238.136 149.64 237.803 150.353 237.47 151.065C235.234 155.065 233.076 159.112 230.738 163.052C228.608 166.64 226.377 170.177 224.011 173.613C222.324 176.062 220.214 178.21 217.123 178.815C211.272 179.96 205.656 179.808 200.941 175.405C200.404 174.904 199.743 174.423 199.054 174.22C197.052 173.628 196.003 172.26 195.469 170.349C195.324 169.83 195.086 169.337 194.891 168.833C194.813 168.482 194.735 168.131 194.575 167.414C194.146 168.105 193.918 168.472 193.69 168.839C192.905 169.867 192.116 170.892 191.334 171.923C188.996 175.002 186.235 177.619 183.025 179.791C178.435 182.896 168.571 183.489 163.394 176.534C160.676 172.883 158.598 168.913 157.71 164.385C157.171 161.638 157.357 158.899 158.13 156.282C159.094 153.015 160.196 149.755 161.609 146.661C164.222 140.942 166.924 135.247 169.936 129.733C172.257 125.485 175.11 121.527 177.73 117.442C178.095 116.872 178.481 116.316 178.858 115.753C179.131 115.432 179.404 115.111 179.838 114.599C179.333 114.637 179.093 114.656 178.853 114.674ZM174.539 173.111C175.355 172.546 176.013 172.198 176.539 171.708C178.794 169.61 181.187 167.625 183.203 165.314C187.031 160.926 190.64 156.348 194.323 151.835C194.708 151.364 195.08 150.838 195.288 150.274C196.185 147.833 197.123 145.4 197.857 142.908C199.929 135.867 202.304 128.948 205.511 122.331C207.691 117.834 209.815 113.309 211.948 108.789C212.16 108.34 212.259 107.838 212.468 107.177C210.85 107.177 209.477 107.106 208.116 107.202C207.248 107.264 206.317 107.414 205.551 107.797C201.74 109.706 198.551 112.343 196.411 116.103C195.258 118.128 194.951 120.352 194.976 122.644C194.985 123.5 194.977 124.357 194.977 125.159C193.412 126.043 191.91 125.702 190.166 125.493C188.223 129.919 186.163 134.317 184.349 138.815C182.044 144.529 179.927 150.319 177.75 156.083C175.73 161.436 174.199 166.891 174.539 173.111ZM227.949 110.043C227.782 110.504 227.599 111.012 227.413 111.519C225.582 116.532 223.752 121.545 221.919 126.558C220.979 129.128 219.933 131.665 219.114 134.272C216.981 141.059 214.928 147.872 212.878 154.685C211.747 158.444 211.075 162.278 211.284 166.226C211.306 166.635 211.421 167.039 211.545 167.737C212.162 166.913 212.598 166.385 212.975 165.819C219.216 156.45 226.354 147.787 233.743 139.316C235.139 137.716 236.488 136.092 238.518 135.247C238.749 127.466 239.565 119.868 241.512 112.436C236.946 111.631 232.589 110.862 227.949 110.043ZM397.131 124.398C396.951 122.772 396.878 121.125 396.567 119.525C396.116 117.204 395.108 116.743 392.905 117.657C392.59 117.788 392.293 117.961 391.992 118.121C388.62 119.915 386.389 122.865 384.178 125.837C379.931 131.546 377.18 138.049 374.26 144.466C372.237 148.911 370.75 153.531 369.837 158.316C369.455 160.319 369.36 162.388 369.283 164.433C369.237 165.665 369.686 166.049 370.894 166.02C371.548 166.004 372.342 165.905 372.823 165.527C375.07 163.759 377.527 162.13 379.341 159.974C381.39 157.539 383.022 154.693 384.498 151.85C387.016 147.001 389.307 142.033 391.606 137.074C392.121 135.962 392.731 135.222 393.977 135.178C395.063 135.14 395.566 134.489 395.756 133.534C396.357 130.522 397.217 127.541 397.131 124.398ZM336.101 116.481C335.708 116.654 335.401 116.77 335.111 116.919C331.124 118.968 327.931 121.947 325.354 125.559C319.634 133.577 314.853 142.081 312.233 151.665C312.035 152.39 311.775 153.099 311.535 153.813C310.085 158.139 309.31 162.569 309.575 167.142C309.631 168.119 309.874 169.085 310.072 170.313C310.573 169.929 310.817 169.805 310.976 169.611C316.532 162.839 322.08 156.061 327.745 149.143C326.482 149.03 325.364 148.821 324.948 148.015C327.921 142.321 330.866 136.911 333.579 131.387C334.84 128.82 335.72 126.056 336.65 123.339C337.433 121.055 337.102 118.794 336.101 116.481ZM265.744 103.9C267.573 104.101 268.677 103.827 270.126 103.005C273.368 101.164 276.025 98.7271 278.564 95.9581C283.409 90.6741 287.192 84.8771 289.3 78.0151C289.968 75.8411 290.448 73.6511 289.944 71.3601C289.43 69.0221 288.299 68.3971 286.11 69.2681C283.591 70.2711 281.73 72.1181 280.281 74.2871C277.968 77.7511 275.622 81.2301 273.736 84.9311C271.257 89.7961 269.181 94.8691 266.999 99.8821C266.466 101.105 266.191 102.439 265.744 103.9ZM431.77 196.862C427.825 200.022 424.592 203.62 421.779 207.597C419.834 210.347 418.161 213.257 417.295 216.55C416.814 218.382 416.594 220.238 417.114 222.169C422.79 218.448 429.487 204.488 431.77 196.862ZM446.072 149.435C445.663 150.422 444.531 151.22 445.052 152.814C446.092 151.739 445.906 150.537 446.072 149.435ZM446.464 148.382L446.443 148.198L446.546 148.217L446.464 148.382Z" fill="#030303"/>
<path d="M82.0793 161.836C90.2043 151.582 93.6523 140.117 90.7893 127.142C89.8073 122.693 87.8263 118.644 84.5473 115.348C84.2763 114.771 83.9703 114.683 83.6153 115.282C83.2623 115.692 82.9093 116.102 82.5563 116.512C82.0303 117.088 81.5043 117.664 80.9793 118.241C80.5573 118.66 80.1363 119.078 79.7143 119.497C79.1363 120.024 78.5583 120.551 77.9803 121.079C76.3223 122.156 74.6963 123.286 73.0003 124.3C68.2143 127.161 62.8993 128.397 57.4703 129.282C54.7743 129.722 52.0913 130.245 49.2233 130.763C49.0813 131.12 48.8363 131.601 48.6943 132.11C45.6663 142.983 42.6453 153.859 39.6393 164.738C39.4593 165.389 39.4093 166.076 39.2993 166.746C39.2273 167.031 39.1563 167.315 39.0843 167.6C38.5033 169.917 37.9663 172.246 37.3273 174.546C36.8723 176.183 36.2783 177.783 35.7463 179.399C35.4283 179.709 35.1103 180.019 34.7923 180.329C33.2803 180.74 31.7913 181.297 30.2533 181.535C26.3133 182.146 23.0033 180.693 20.0793 178.141C19.2563 177.423 18.4303 176.676 17.5003 176.12C16.5723 175.565 15.5123 175.232 14.4473 174.776C13.9353 173.935 14.4163 173.124 14.7053 172.296C18.8413 160.467 23.6313 148.897 28.4013 137.314C33.8813 124.006 39.9163 110.97 46.6073 98.2321C47.7833 95.9931 48.7913 93.6641 49.8483 91.3631C50.4953 89.9551 50.8123 89.7191 52.3493 89.7851C54.5363 89.8791 56.2393 91.1741 57.7733 92.4451C58.4713 93.0231 58.6653 94.6121 58.5523 95.6871C58.2813 98.2661 57.8693 100.86 57.1953 103.362C55.8243 108.452 54.2393 113.484 52.7523 118.542C52.5993 119.062 52.5103 119.6 52.3913 120.13C52.3483 120.285 52.3053 120.439 52.2613 120.594C52.4263 120.589 52.5903 120.584 52.7553 120.58C56.3323 119.242 59.5673 117.286 62.2083 114.56C64.9673 111.713 67.6293 108.734 70.0043 105.566C71.5833 103.459 72.8203 101.012 73.7853 98.5501C74.9803 95.5021 76.0263 92.3351 76.6183 89.1231C77.6913 83.2981 77.2103 77.5491 74.7933 72.0231C74.1123 70.4661 73.0373 69.7921 71.4853 69.7721C65.7093 69.6981 60.2203 70.7201 55.1193 73.6681C47.0173 78.3501 40.8283 84.9071 36.0383 92.8271C35.1493 94.2981 34.9003 96.1651 34.4143 97.8661C34.2293 98.5121 34.2073 99.2051 34.1213 99.8021C33.1203 100.449 32.4733 99.8941 31.7963 99.4201C29.0783 97.5191 26.7833 92.8811 28.0263 88.8511C29.4623 84.1921 31.6403 79.9371 34.9843 76.4011C39.7013 71.4131 45.1133 67.3441 51.8003 65.3681C57.2453 63.7591 62.8623 63.5581 68.5023 63.8891C68.6393 63.8971 68.7803 63.9001 68.9103 63.9381C74.0223 65.4451 79.2503 66.6511 83.7883 69.6551C84.4153 70.0701 85.0153 70.6211 85.7113 70.8231C89.5293 71.9311 91.4563 74.8731 92.8873 78.2211C93.4973 79.6481 93.9253 81.2221 94.0793 82.7641C95.0803 92.8061 92.7043 102.05 87.2753 110.532C87.0183 110.933 86.7573 111.331 86.4353 111.825C88.0083 112.732 89.4963 113.665 91.0503 114.472C97.2013 117.667 101.348 122.626 103.513 129.124C106.389 137.758 105.932 146.398 102.913 154.934C100.43 161.954 96.3003 167.997 91.5773 173.646C82.6253 184.352 71.1463 191.086 57.7843 194.738C50.6853 196.678 43.4743 197.818 36.0723 197.646C31.6273 197.543 27.3673 196.728 23.2793 195.018C17.1073 192.436 11.5673 188.763 6.20029 184.844C1.84729 181.665 -0.0567156 177.209 0.00128436 171.837C0.0562844 166.732 1.18728 161.908 3.68228 157.461C4.47328 156.052 5.50029 154.696 6.68329 153.602C9.22229 151.256 11.7073 151.482 14.0023 153.826C13.3673 158.82 12.6623 163.626 12.1883 168.454C11.9903 170.475 12.2833 172.545 12.3523 174.593C12.4193 175.153 12.4863 175.713 12.5533 176.272C12.6573 177.077 12.6723 177.905 12.8803 178.682C15.0253 186.702 23.0133 192.102 31.4553 191.256C50.4943 189.349 65.9823 180.707 78.4763 166.414C79.3693 165.393 80.1533 164.276 80.9883 163.203C81.3493 162.746 81.7143 162.291 82.0793 161.836Z" fill="#030303"/>
<path d="M272.27 182.922C272.729 183.821 273.188 184.72 273.647 185.619C270.514 185.783 267.383 185.997 264.248 186.099C258.718 186.278 253.184 186.36 247.654 186.543C245.82 186.604 243.989 186.825 242.162 187.021C238.785 187.384 235.419 187.883 232.034 188.137C228.709 188.387 225.365 188.384 222.119 189.303C221.733 189.412 221.304 189.365 220.896 189.399C217.506 189.687 214.048 189.655 210.744 190.351C206.991 191.142 203.185 191.264 199.432 191.884C198.494 192.039 197.553 192.184 196.607 192.273C194.709 192.452 192.796 192.505 190.91 192.761C187.415 193.235 183.937 193.84 180.446 194.347C178.967 194.562 177.472 194.678 175.983 194.82C173.277 195.078 170.569 195.325 167.862 195.567C167.592 195.591 167.302 195.596 167.044 195.527C165.649 195.154 164.406 196.025 163.042 195.994C162.396 195.979 161.747 196.28 161.091 196.394C160.222 196.545 159.35 196.72 158.473 196.763C157.633 196.804 156.786 196.688 155.834 196.635C155.929 197.754 156.447 198.149 157.346 197.992C160.09 197.513 162.846 197.404 165.622 197.59C165.936 197.611 166.262 197.407 166.586 197.326C167.295 197.148 167.998 196.911 168.718 196.825C170.474 196.615 172.246 196.532 173.999 196.3C177.635 195.819 181.252 194.951 184.895 194.844C188.813 194.729 192.572 193.744 196.439 193.421C200.632 193.072 204.798 192.401 208.976 191.867C210.862 191.625 212.744 191.353 214.632 191.13C217.334 190.812 220.036 190.5 222.744 190.237C224.777 190.04 226.857 190.122 228.848 189.731C233.018 188.913 237.21 188.587 241.444 188.567C241.983 188.564 242.52 188.417 243.061 188.37C245.433 188.162 247.804 187.937 250.18 187.777C251.316 187.7 252.463 187.802 253.6 187.737C255.024 187.654 256.456 187.564 257.859 187.326C259.211 187.097 260.528 186.946 261.871 187.328C262.119 187.399 262.414 187.314 262.687 187.289C263.972 187.173 265.256 186.98 266.543 186.948C269.213 186.879 271.886 186.895 274.557 186.875C281.66 193.25 292.178 192.051 297.701 184.239C297.857 184.019 298.041 183.819 298.212 183.61C305.726 184.222 313.196 185.1 320.422 187.39C324.555 188.7 328.5 190.427 332.012 193.01C337.637 197.147 340.843 202.782 342.146 209.572C341.665 209.949 341.88 210.211 342.29 210.44C342.34 211.916 342.39 213.391 342.44 214.867C342.241 215.03 341.944 215.152 341.856 215.362C340.725 218.046 339.443 220.605 336.799 222.165C336.641 222.258 336.559 222.481 336.441 222.644C335.926 222.806 335.404 222.951 334.896 223.132C331.266 224.426 327.635 225.715 323.756 226.063C321.81 226.048 319.864 226.034 317.919 226.019C318.24 225.747 318.537 225.281 318.885 225.24C319.823 225.128 320.801 225.314 321.727 225.163C322.684 225.007 323.598 224.592 324.531 224.291C324.73 224.18 324.928 224.069 325.127 223.959C324.979 223.869 324.831 223.779 324.683 223.689C324.071 223.649 323.44 223.492 322.849 223.588C319.39 224.149 315.944 224.149 312.475 223.639C311.776 223.536 311.015 223.859 310.283 223.989C309.888 224.059 309.273 224.334 309.137 224.18C308.246 223.172 307.072 223.5 305.99 223.333C303.518 222.952 301.186 221.69 298.549 222.271C298.05 222.381 297.434 221.96 296.826 221.77C296.596 222.046 296.312 222.386 296.301 222.399C294.703 222.489 293.483 222.557 292.074 222.637C291.363 221.731 291.183 221.677 290.313 222.596C289.961 222.968 289.786 223.507 289.53 223.97C289.122 223.969 288.714 223.969 288.306 223.969C287.405 223.421 286.505 222.873 285.792 222.44C284.929 222.807 284.229 223.081 283.558 223.413C283.432 223.476 283.422 223.772 283.358 223.961C283.084 223.959 282.81 223.956 282.537 223.954C282.286 223.703 281.929 223.191 281.8 223.243C280.976 223.575 280.38 223.276 279.75 222.79C279.161 222.336 278.458 222.027 277.884 221.557C277.236 221.026 276.656 220.975 276.088 221.582C275.14 222.596 274.03 222.371 272.902 222.154C272.863 221.627 272.831 221.193 272.777 220.472C271.559 220.803 270.546 221.077 269.422 221.382C268.943 221.185 268.342 220.788 267.7 220.701C264.846 220.316 262.01 219.501 259.089 220.175C257.582 219.463 255.926 220.407 254.337 219.653C253.552 219.28 252.013 219.317 251.489 219.841C250.671 220.66 249.666 220.918 248.798 221.499C247.839 221.498 246.88 221.498 245.921 221.497C245.49 221.358 245.064 221.119 244.628 221.1C243.409 221.049 242.187 221.089 240.966 221.093C236.708 221.228 232.448 221.336 228.191 221.512C226.171 221.596 224.155 221.803 222.139 221.979C221.966 221.994 221.81 222.193 221.645 222.307C221.103 222.316 220.561 222.325 220.019 222.334C219.738 222.445 219.457 222.556 219.175 222.667C217.138 223.024 215.101 223.381 213.064 223.737C209.564 224.374 208.497 224.791 207.44 225.978C207.828 225.978 208.154 225.978 208.48 225.978C208.851 226.806 209.504 226.947 210.305 226.726C215.167 227.279 220.028 227.832 224.89 228.385C225.117 228.832 225.383 229.014 225.751 228.514C238.946 230.075 250.231 235.246 258.573 245.934C260.182 247.995 261.558 250.205 262.037 252.849C262.074 253.051 262.145 253.247 262.174 253.45C262.511 255.777 261.507 256.854 259.114 256.735C259.108 256.405 258.753 255.927 258.031 255.289C257.56 254.873 257.083 254.462 256.447 253.907C257.004 251.831 255.998 250.256 254.245 248.747C249.545 244.701 244.01 242.467 238.143 240.882C232.231 239.285 226.17 238.731 220.083 238.304C215.856 238.007 211.632 237.583 207.43 237.042C204.921 236.719 202.776 235.448 201.032 233.598C199.679 232.162 198.145 230.818 197.121 229.167C194.356 224.707 194.56 219.073 199.765 215.957C202.568 214.279 205.606 213.268 208.739 212.503C215.487 210.856 222.358 210.132 229.288 209.962C239.432 209.714 249.562 210.044 259.685 210.727C267.474 211.252 275.273 211.631 283.063 212.147C291.601 212.712 300.131 213.418 308.671 213.951C314.084 214.289 319.506 214.171 324.803 212.851C326.505 212.427 328.175 211.687 329.705 210.819C330.736 210.234 331.621 209.266 332.343 208.299C333.19 207.166 332.995 206.599 331.884 205.686C331.305 205.21 330.715 204.747 330.13 204.278C330.756 203.923 330.628 203.503 330.145 203.188C329.584 202.822 328.982 202.496 328.358 202.255C326.798 201.652 325.216 201.107 323.642 200.539C322.987 200.385 322.327 200.251 321.679 200.074C319.736 199.544 317.797 198.997 315.857 198.456C315.788 197.993 315.874 197.391 315.613 197.101C315.226 196.672 314.625 196.327 314.058 196.195C312.937 195.935 312.541 196.827 312.159 197.647C312.02 197.643 311.882 197.638 311.743 197.634C311.351 197.031 311.088 196.127 310.538 195.891C309.599 195.488 308.593 195.059 307.414 195.399C306.331 195.711 305.074 195.981 304.023 195.731C301.731 195.184 299.043 195.864 297.211 193.718C297.07 193.553 296.695 193.6 296.439 193.518C295.321 193.159 294.319 193.484 293.214 193.77C292.047 194.072 290.73 193.793 289.203 193.763C288.112 192.588 285.571 192.205 283.351 193.129C283.225 193.124 283.099 193.122 282.972 193.125C281.316 192.31 279.872 192.816 278.508 194.11C277.584 192.463 276.315 192.499 274.819 192.903C274.782 193.555 274.748 194.15 274.715 194.746C274.588 194.76 274.46 194.768 274.332 194.772C273.384 194.706 272.437 194.627 271.488 194.581C271.169 194.565 270.841 194.606 270.525 194.663C269.677 194.817 268.838 195.108 267.987 195.141C263.365 195.319 258.74 195.413 254.117 195.585C252.085 195.661 250.055 195.837 248.028 196.008C247.725 196.034 247.44 196.279 247.147 196.422C246.603 196.426 246.058 196.43 245.514 196.435C245.407 196.127 245.3 195.819 245.105 195.257C247.052 194.989 248.834 194.743 250.615 194.497C248.101 193.603 245.699 194.06 243.161 194.532C243.552 195.145 243.846 195.606 244.314 196.34C242.768 196.517 241.504 196.699 240.233 196.798C237.996 196.971 235.753 197.076 233.516 197.251C233.051 197.287 232.526 197.401 232.163 197.664C231.845 197.895 231.716 198.386 231.503 198.763C231.241 198.775 230.98 198.786 230.718 198.798C230.659 198.479 230.6 198.16 230.511 197.68C225.911 198.217 221.413 198.763 216.91 199.262C212.865 199.711 208.813 200.099 204.767 200.534C203.285 200.693 201.771 200.765 200.339 201.135C198.532 201.601 196.735 201.812 194.883 201.757C194.138 201.735 193.386 201.803 192.642 201.883C189.272 202.245 185.904 202.625 182.536 202.998C181.856 203.129 181.175 203.26 180.495 203.39C180.098 203.211 179.444 203.119 179.349 202.838C178.965 201.704 178.109 201.629 177.217 201.785C176.407 201.927 175.393 201.879 175.139 203.028C174.953 203.871 174.44 203.896 173.777 203.568C173.876 203.126 173.966 202.722 174.128 201.999C171.896 202.221 169.909 202.418 167.876 202.62C167.828 203.314 167.795 203.777 167.763 204.24C167.627 204.374 167.49 204.509 167.354 204.643C166.615 204.606 165.837 204.726 165.323 203.957C165.209 203.786 164.787 203.604 164.688 203.676C163.835 204.297 162.501 203.713 161.851 204.819C161.814 204.881 161.601 204.839 161.47 204.846C161.2 204.495 160.931 204.143 160.63 203.749C159.12 204.678 157.838 205.984 155.925 205.094C155.661 204.971 155.185 205.314 154.804 205.43C154.495 205.524 154.184 205.658 153.868 205.674C152.55 205.743 151.229 205.806 149.91 205.805C149.388 205.805 148.838 205.705 148.351 205.518C147.801 205.307 147.277 204.672 146.798 204.726C146.261 204.787 145.788 205.412 145.619 205.54C144.347 205.609 143.426 205.666 142.504 205.707C141.306 205.76 139.966 206.164 138.938 205.767C136.918 204.987 134.944 205.672 132.968 205.457C131.215 205.266 129.452 205.16 127.692 205.04C126.928 204.988 126.161 204.996 125.781 205.865C125.095 205.725 124.409 205.585 123.723 205.445C123.685 204.607 123.085 204.618 122.486 204.626C122.215 204.619 121.943 204.612 121.672 204.605C121.425 204.341 121.221 203.999 120.921 203.834C120.521 203.615 120.045 203.534 119.601 203.394L119.602 203.397C119.464 202.263 118.595 202.641 117.933 202.589C117.669 202.581 117.404 202.573 117.14 202.565C116.946 201.957 116.992 200.977 115.899 201.766C114.494 201.233 113.089 200.701 111.684 200.168C111.571 200.149 111.481 200.093 111.413 200.002C111.059 198.942 110.465 198.156 109.235 198.097C109.118 198.069 109.024 198.005 108.954 197.907C108.467 196.773 107.709 195.923 106.492 195.553C102.246 191.312 100.261 186.113 100.342 180.193C100.395 176.284 102.043 173.034 105.477 170.914C106.377 170.358 107.362 169.727 108.498 170.468C108.167 170.667 107.837 170.866 107.506 171.065C107.546 171.137 107.586 171.208 107.626 171.28C107.913 171.121 108.199 170.962 108.486 170.802C108.62 170.833 108.755 170.863 108.89 170.894C109.158 171.205 109.426 171.516 109.694 171.827C109.646 171.939 109.667 172.037 109.756 172.12C109.722 172.53 109.688 172.941 109.654 173.351C109.245 174.027 108.836 174.703 108.428 175.38C108.296 175.665 108.164 175.95 108.032 176.235C107.077 177.745 106.855 179.435 106.825 181.171C106.838 182.131 106.85 183.092 106.863 184.052C106.994 187.636 109.086 189.77 112.142 191.19C112.57 191.43 112.997 191.669 113.425 191.909C116.321 193.709 119.566 194.548 122.857 195.142C128.474 196.156 134.146 196.206 139.826 195.741C142.002 195.563 144.178 195.373 146.354 195.189C146.765 195.168 147.177 195.146 147.588 195.125C150.924 194.838 154.27 194.638 157.594 194.249C167.377 193.103 177.153 191.893 186.93 190.685C193.719 189.846 200.503 188.972 207.288 188.103C207.691 188.051 208.083 187.911 208.48 187.811C208.754 187.79 209.028 187.769 209.303 187.748C212.97 187.351 216.635 186.932 220.305 186.562C226.292 185.959 232.273 185.269 238.272 184.834C247.137 184.19 256.015 183.727 264.889 183.211C267.346 183.072 269.809 183.017 272.27 182.922ZM315.834 217.706C316.255 218.342 316.687 218.329 317.129 217.728C318.291 217.722 319.455 217.763 320.614 217.7C323.149 217.563 325.639 217.179 327.947 216.034C328.654 215.683 329.45 215.353 329.158 214.275C328.536 214.373 328.003 214.456 327.471 214.54C326.696 214.579 325.991 214.734 325.72 215.603C322.855 216.063 319.99 216.523 317.125 216.983C316.675 216.996 316.225 217.008 315.774 217.021C315.539 217.034 315.303 217.047 315.068 217.059C314.373 216.892 313.683 216.609 312.982 216.577C309.505 216.421 306.015 216.805 302.544 216.167C300.946 215.873 299.293 215.88 297.667 215.733C296.585 215.635 295.508 215.46 294.424 215.403C293.318 215.345 292.207 215.39 290.962 215.39C291.564 216.608 292.318 217.011 293.393 216.979C294.555 216.944 295.726 216.949 296.884 217.043C299.526 217.258 302.16 217.586 304.803 217.779C307.455 217.974 310.113 218.105 312.77 218.169C313.53 218.187 314.298 217.874 315.062 217.714C315.321 217.712 315.577 217.709 315.834 217.706ZM211.772 222.303C211.596 222.39 211.42 222.478 211.244 222.565C211.406 222.607 211.568 222.648 211.73 222.69C213.949 222.153 216.168 221.617 218.387 221.08C218.348 220.914 218.309 220.748 218.27 220.582C216.374 220.964 214.475 221.329 212.587 221.746C212.289 221.813 212.042 222.112 211.772 222.303ZM217.477 213.752C214.158 214.418 210.837 215.079 207.52 215.752C205.265 216.21 203.082 217.287 202.008 218.419C207.15 217.128 212.348 215.822 217.546 214.516C218.223 214.504 218.915 214.58 219.574 214.464C223.1 213.845 226.64 213.456 230.226 213.628C231.524 213.608 232.824 213.617 234.12 213.56C235.478 213.501 236.835 213.281 238.188 213.309C240.343 213.353 242.494 213.583 244.649 213.666C248.947 213.832 253.247 213.953 257.546 214.092C257.614 214.094 257.684 214.093 257.751 214.101C262.609 214.699 267.488 214.915 272.38 214.912C272.791 214.912 273.203 214.911 273.612 214.94C277.277 215.2 280.943 215.46 284.607 215.737C285.689 215.819 286.766 215.979 287.848 216.056C288.612 216.11 289.46 216.438 290.337 215.301C289.022 215.214 287.991 215.169 286.966 215.072C285.139 214.899 283.319 214.616 281.488 214.517C277.877 214.323 274.261 214.224 270.647 214.08C270.307 214.066 269.969 214.013 269.63 213.969C267.811 213.736 265.999 213.406 264.172 213.286C260.974 213.075 257.768 212.982 254.565 212.859C250.677 212.709 246.79 212.53 242.901 212.456C239.271 212.387 235.638 212.423 232.007 212.458C231.432 212.464 230.859 212.712 230.285 212.848C227.636 212.981 224.985 213.083 222.339 213.257C220.716 213.367 219.098 213.584 217.477 213.752ZM326.453 223.898C328.92 224.333 332.489 223.279 333.668 221.889C331.168 222.585 328.811 223.242 326.453 223.898ZM332.41 218.736C332.438 218.581 332.467 218.426 332.495 218.271C332.083 218.204 331.611 217.974 331.27 218.1C330.213 218.488 329.201 219 328.183 219.49C327.89 219.631 327.64 219.858 327.144 220.202C329.318 220.333 330.778 219.258 332.41 218.736ZM205.831 224.884C207.457 224.575 208.932 223.937 210.245 222.945C208.52 223.036 207.045 223.675 205.831 224.884ZM208.098 220.301C208.095 220.165 208.091 220.029 208.088 219.893C206.541 219.9 205.332 220.668 204.186 221.581C204.246 221.722 204.306 221.862 204.367 222.003C205.611 221.436 206.854 220.868 208.098 220.301ZM154.063 197.782C154.153 197.633 154.243 197.483 154.333 197.334C154.088 197.242 153.831 197.055 153.602 197.085C153.404 197.111 153.21 197.365 153.079 197.562C153.049 197.606 153.277 197.932 153.407 197.948C153.616 197.971 153.843 197.845 154.063 197.782ZM241.634 194.639C241.519 194.589 241.404 194.54 241.289 194.49C241.24 194.605 241.127 194.745 241.159 194.828C241.191 194.91 241.371 194.934 241.486 194.984C241.535 194.869 241.585 194.754 241.634 194.639Z" fill="#F3C91D"/>
<path d="M128.684 30.2491C127.953 30.7071 127.276 31.3781 126.48 31.5821C124.114 32.1871 121.71 32.6571 119.303 33.0791C118.1 33.2901 116.861 33.3111 115.635 33.3611C114.959 33.3881 114.276 33.3141 113.599 33.2531C112.852 33.1861 112.11 33.0611 111.362 32.9981C108.645 32.7661 105.892 32.7531 103.218 32.2821C98.3383 31.4211 93.5233 29.9321 89.6513 26.8391C84.5673 22.7771 82.3873 17.9751 84.7493 11.0741C85.3193 9.40813 86.5953 7.84214 87.8963 6.59614C91.4633 3.18214 95.7893 2.12813 100.588 3.32013C105.783 4.61013 109.297 8.04814 111.797 12.5771C114.922 18.2401 118.555 23.4761 123.41 27.8171C124.916 29.1641 126.673 29.6801 128.625 29.8251C128.645 29.9661 128.664 30.1081 128.684 30.2491Z" fill="#F3C91D"/>
<path d="M137.186 41.6821C136.676 42.1271 136.359 42.4481 135.999 42.7091C133.102 44.8131 130.962 47.6271 129.475 50.7701C127.437 55.0751 125.814 59.5791 124.093 64.0281C122.714 67.5941 121.568 71.2541 120.099 74.7811C119.1 77.1781 117.727 79.4041 115.21 80.6301C113.213 81.6021 110.917 81.3501 109.302 79.8701C106.601 77.3941 104.669 74.2971 103.972 70.8141C103.006 65.9851 103.385 61.0861 106.115 56.7561C108.804 52.4921 112.368 49.0481 116.423 46.0131C119.352 43.8211 122.575 42.4901 125.995 41.5081C129.126 40.6091 132.35 40.6741 135.566 40.9681C135.896 40.9981 136.219 41.1601 136.534 41.2881C136.717 41.3621 136.876 41.4911 137.186 41.6821Z" fill="#F3C91D"/>
<path d="M352.089 48.8592C354.856 47.7372 356.892 45.7241 358.673 43.4611C362.141 39.0531 365.584 34.6242 368.939 30.1292C370.943 27.4442 372.679 24.5602 374.676 21.8702C377.761 17.7152 381.821 15.0072 386.934 13.8622C390.235 13.1232 392.812 15.4802 393.652 17.6642C394.471 19.7942 394.575 21.9952 393.941 24.2922C392.328 30.1382 388.588 34.3482 383.931 37.9242C383.063 38.5902 382.227 39.2992 381.394 40.0092C377.988 42.9122 373.962 44.6412 369.732 45.8082C364.938 47.1302 360.066 48.1782 355.209 49.2602C354.265 49.4702 353.234 49.2902 352.243 49.2902C352.191 49.1472 352.14 49.0032 352.089 48.8592Z" fill="#F3C91D"/>
<path d="M154.728 30.8761C163.505 30.6561 172.037 30.4411 180.674 30.2241C180.724 30.0361 180.841 29.7911 180.846 29.5441C180.973 22.6261 181.108 15.7071 181.194 8.78812C181.216 7.01012 181.031 5.22913 181.033 3.45013C181.034 1.68613 181.607 0.851118 182.678 0.800118C183.829 0.745118 184.481 1.61012 184.478 3.49812C184.466 9.80112 184.39 16.1031 184.354 22.4061C184.31 30.0121 184.222 37.6201 184.268 45.2261C184.298 50.2251 184.465 55.2261 184.711 60.2191C184.807 62.1721 184.002 62.7891 183.122 62.8191C182.012 62.8571 181.325 62.0161 181.29 60.3381C181.125 52.2571 180.999 44.1751 180.863 36.0941C180.85 35.3551 180.861 34.6151 180.861 33.6901C172.055 33.8881 163.458 34.0811 154.727 34.2771C154.669 35.2361 154.588 36.0421 154.577 36.8481C154.472 44.5221 154.329 52.1951 154.321 59.8691C154.319 61.6611 153.728 62.4031 152.685 62.4671C151.588 62.5341 150.899 61.6071 150.912 59.9471C150.963 53.7811 151.05 47.6161 151.14 41.4501C151.181 38.6411 151.229 35.8321 151.324 33.0241C151.529 27.0021 151.81 20.9821 151.977 14.9591C152.078 11.3291 152.018 7.69512 152.039 4.06312C152.043 3.37812 152.04 2.68912 152.119 2.01112C152.216 1.17112 152.71 0.633116 153.571 0.526116C154.385 0.425116 155.088 0.995121 155.304 1.94712C155.394 2.34212 155.387 2.76413 155.387 3.17413C155.383 7.21713 155.45 11.2631 155.34 15.3031C155.227 19.4761 154.933 23.6431 154.736 27.8141C154.692 28.7001 154.728 29.5891 154.728 30.8761Z" fill="#0E0E0E"/>
<path d="M205.579 35.6322C203.606 42.5692 201.671 49.4822 199.66 56.3722C199.106 58.2692 198.371 60.1192 197.626 61.9522C197.192 63.0192 196.336 63.3831 195.505 63.0151C194.603 62.6161 194.419 61.8552 194.569 60.9622C194.591 60.8282 194.635 60.6962 194.68 60.5672C197.554 52.3681 199.492 43.8882 202.15 35.6231C204.18 29.3101 206.06 22.9481 208.067 16.6271C209.389 12.4611 210.783 8.31715 212.227 4.19215C212.534 3.31615 213.125 2.50616 213.718 1.77316C214.425 0.89916 215.487 0.911154 216.162 1.85415C216.749 2.67415 217.237 3.62215 217.527 4.58615C218.666 8.38215 219.793 12.1862 220.772 16.0252C222.682 23.5092 224.54 31.0062 226.32 38.5212C227.281 42.5812 227.987 46.7002 228.896 50.7732C229.789 54.7712 230.793 58.7452 231.749 62.7302C229.765 63.5122 229.656 63.5712 228.665 61.8802C227.954 60.6672 227.389 59.3062 227.07 57.9392C225.764 52.3422 224.585 46.7152 223.344 41.1022C222.904 39.1132 222.42 37.1342 221.952 35.1352C216.487 34.8572 211.177 34.7592 205.579 35.6322ZM220.881 31.4331C220.511 27.2601 215.653 8.94716 214.366 7.30916C211.911 15.5552 209.506 23.6342 207.084 31.7702C211.734 31.6572 216.221 31.5471 220.881 31.4331Z" fill="#0F0F0F"/>
<path d="M374.144 54.4162C382.491 50.4672 390.595 50.6372 398.617 54.1522C404.3 56.6422 407.508 61.1762 408.537 67.3182C409.003 70.1022 408.772 72.6592 406.854 74.8272C405.008 76.9142 402.671 78.1322 399.831 77.9162C399.019 77.8542 398.052 77.3942 397.505 76.7972C396.226 75.4012 394.888 73.9452 394.063 72.2722C392.608 69.3202 391.122 66.3502 389.035 63.8652C386.277 60.5812 383.151 57.5782 378.866 56.2002C377.387 55.7252 375.954 55.1062 374.144 54.4162Z" fill="#F3C91D"/>
<path d="M244.302 35.4202C244.302 41.3052 244.303 46.8501 244.302 52.3941C244.302 55.0671 244.301 57.7401 244.292 60.4131C244.29 60.9601 244.317 61.5201 244.215 62.0521C244.037 62.9731 243.291 63.5682 242.482 63.4762C241.636 63.3802 241.105 62.8731 240.979 62.0351C240.898 61.4971 240.917 60.9421 240.918 60.3951C240.948 42.0281 240.981 23.6611 241.01 5.29314C241.011 4.54014 240.954 3.78614 240.968 3.03314C240.992 1.75114 241.481 1.12915 242.773 0.982146C247.596 0.434146 252.416 -0.241857 257.291 0.0861425C257.962 0.131143 258.634 0.30914 259.281 0.50714C261.989 1.33514 264.386 2.75915 266.699 4.36615C267.946 5.23315 268.75 6.39015 269.237 7.75615C271.206 13.2841 271.124 18.6531 267.659 23.6251C266.412 25.4151 264.98 27.0811 263.569 28.7501C262.359 30.1821 260.781 31.1071 259.113 31.9711C254.527 34.3461 249.698 35.6052 244.302 35.4202ZM244.381 31.7361C244.677 31.8381 244.803 31.9181 244.93 31.9201C252.222 32.0341 258.508 29.8131 263.284 24.0451C266.82 19.7741 267.98 15.0041 266.319 9.65915C266.083 8.90115 265.7 8.05114 265.118 7.56314C262.846 5.65914 260.312 3.94314 257.376 3.55614C253.046 2.98514 248.7 3.53714 244.382 4.36214C244.381 13.5561 244.381 22.5901 244.381 31.7361Z" fill="#0D0D0D"/>
<path d="M283.858 35.6331C283.858 42.1191 283.858 48.6131 283.858 55.2161C282.733 55.3531 281.741 55.4741 280.539 55.6201C280.499 55.0091 280.426 54.4231 280.426 53.8381C280.447 37.7931 280.477 21.7471 280.502 5.70214C280.503 4.81114 280.449 3.92013 280.465 3.03013C280.487 1.74913 280.98 1.12913 282.275 0.98113C287.032 0.43913 291.787 -0.251864 296.594 0.0961358C297.664 0.174136 298.801 0.381128 299.751 0.847128C301.951 1.92613 304.062 3.18813 306.197 4.39713C307.595 5.18913 308.331 6.53514 308.822 7.96314C310.703 13.4391 310.574 18.7531 307.142 23.6491C305.889 25.4371 304.457 27.1031 303.045 28.7731C301.833 30.2061 300.248 31.1211 298.579 31.9851C294.171 34.2661 289.543 35.5121 284.571 35.4511C284.382 35.4481 284.191 35.5441 283.858 35.6331ZM283.927 4.05413C283.927 13.5811 283.927 22.6721 283.927 31.7671C284.212 31.8401 284.404 31.9321 284.595 31.9331C291.79 31.9531 298.033 29.7871 302.759 24.0741C306.292 19.8031 307.471 15.0441 305.839 9.69013C305.52 8.64413 305.047 7.63814 304.03 7.03814C302.561 6.17114 301.12 5.25314 299.614 4.45614C298.21 3.71414 296.688 3.30113 295.072 3.39513C291.393 3.60713 287.716 3.82913 283.927 4.05413Z" fill="#0D0D0D"/>
<path d="M332.677 28.5972C334.146 27.5042 334.854 26.1552 335.631 24.9012C338.549 20.1902 341.483 15.4862 344.246 10.6842C345.709 8.14118 346.826 5.40018 348.114 2.75518C348.352 2.26718 348.552 1.63218 348.962 1.38918C349.483 1.08018 350.239 0.909178 350.822 1.02918C351.572 1.18318 351.848 1.95218 351.684 2.67618C351.52 3.39918 351.205 4.09518 350.899 4.77718C348.064 11.0952 344.579 17.0682 341.013 22.9852C339.249 25.9112 337.176 28.6532 335.19 31.4412C334.646 32.2052 334.404 32.9492 334.407 33.8942C334.427 38.7612 334.415 43.6292 334.341 48.4962C334.278 52.6752 334.13 56.8532 333.991 61.0302C333.945 62.4232 333.3 63.1542 332.265 63.1242C331.244 63.0952 330.639 62.3712 330.634 60.9432C330.626 58.3392 330.693 55.7342 330.735 53.1292C330.837 46.8932 330.933 40.6582 331.057 34.4232C331.075 33.5002 330.811 32.7562 330.334 31.9482C329.292 30.1842 328.466 28.2942 327.514 26.4752C325.992 23.5672 324.326 20.7292 322.925 17.7652C320.733 13.1272 318.696 8.41618 316.63 3.71918C316.113 2.54318 316.417 1.68518 317.322 1.28118C318.124 0.924177 318.966 1.18917 319.518 2.24817C320.434 4.00517 321.259 5.81518 322.026 7.64218C324.121 12.6302 326.34 17.5492 329.165 22.1822C330.052 23.6372 330.672 25.2532 331.461 26.7702C331.786 27.3862 332.234 27.9382 332.677 28.5972Z" fill="#0E0E0E"/>
<path d="M143.669 81.2042C144.991 81.7002 146.336 82.1432 147.627 82.7102C148.433 83.0632 149.125 83.6752 149.928 84.0382C150.922 84.4862 151.233 85.1642 150.968 86.1752C150.881 86.5052 150.83 86.8482 150.709 87.1662C149.372 90.6952 147.731 94.0762 145.569 97.1752C144.096 99.2872 142.046 99.5912 139.89 98.1332C139.608 97.9422 139.381 97.6392 139.077 97.5152C137.1 96.7122 136.848 95.1932 137.284 93.3582C137.995 90.3702 138.564 87.3392 139.443 84.4022C140.138 82.0822 141.193 81.5132 143.669 81.2042Z" fill="#050505"/>
<path d="M317.918 226.022C319.864 226.037 321.81 226.051 323.755 226.066C324.91 226.765 326.123 226.395 327.321 226.248C328.869 226.059 330.414 225.856 331.961 225.658C331.622 225.915 331.313 226.336 330.94 226.404C328.523 226.845 326.102 227.435 323.662 227.556C316.754 227.899 309.854 227.696 302.966 226.925C298.895 226.469 294.794 226.282 290.708 225.946C284.647 225.449 278.588 224.913 272.526 224.423C270.006 224.219 267.479 224.107 264.958 223.922C261.212 223.647 257.467 223.343 253.722 223.052C253.833 222.353 254.177 221.916 254.951 221.975C256.408 222.087 257.863 222.237 259.322 222.295C259.848 222.316 260.459 222.246 260.898 221.989C261.948 221.374 262.98 221.669 263.788 222.197C264.483 222.651 264.981 222.647 265.657 222.398C266.271 222.172 267.324 221.707 267.478 221.902C268.305 222.952 269.554 222.468 270.471 222.947C272.368 223.937 274.455 223.722 276.442 223.858C277.502 223.93 278.571 223.894 279.623 224.152C280.611 224.395 281.611 224.687 282.537 223.956C282.811 223.958 283.085 223.961 283.358 223.963C284.339 224.011 285.277 223.911 286.214 224.584C286.768 224.982 287.936 225.28 288.306 223.971C288.714 223.971 289.122 223.972 289.53 223.972C289.845 224.604 290.314 224.673 291.025 224.702C292.782 224.772 294.476 223.647 296.341 224.649C296.857 224.927 297.81 224.504 298.402 225.334C298.568 225.566 299.313 225.544 299.717 225.412C300.408 225.185 301.04 224.779 301.554 224.52C302.844 224.945 304.002 225.526 305.217 225.686C307.947 226.046 310.7 226.283 313.451 226.396C314.933 226.457 316.429 226.158 317.918 226.022Z" fill="#F5D34B"/>
<path d="M123.726 205.447C124.412 205.587 125.098 205.727 125.784 205.867C129.57 206.67 133.352 207.528 137.252 207.495C139.785 207.473 142.327 207.172 144.845 207.324C146.646 207.433 148.331 207.251 150.031 206.773C150.352 206.683 150.709 206.699 151.049 206.698C153.229 206.69 155.409 206.709 157.589 206.683C159.145 206.665 160.731 206.892 162.189 206.029C162.491 205.85 163.002 205.889 163.373 205.988C165.016 206.426 166.207 205.615 167.357 204.643C167.493 204.509 167.63 204.374 167.766 204.239C169.088 204.215 170.519 204.172 171.703 204.41C173.026 204.676 174.272 204.625 175.516 204.53C176.393 204.464 176.672 205.034 177.188 205.384C175.794 205.626 174.409 205.954 173.004 206.095C167.091 206.689 161.18 207.326 155.254 207.761C148.093 208.286 140.912 208.603 133.733 208.216C126.294 207.816 119.361 205.727 113.139 201.531C112.596 201.165 112.168 200.627 111.686 200.169C113.091 200.702 114.496 201.235 115.901 201.767C116.315 202.033 116.728 202.3 117.142 202.566C117.406 202.574 117.671 202.582 117.935 202.589C118.103 203.659 118.944 203.34 119.603 203.397L119.602 203.394C119.863 204.626 119.863 204.626 121.673 204.605C121.944 204.612 122.216 204.619 122.487 204.626C122.901 204.901 123.313 205.174 123.726 205.447Z" fill="#F5D656"/>
<path d="M282.537 223.956C281.611 224.686 280.611 224.394 279.623 224.152C278.57 223.893 277.501 223.93 276.442 223.858C274.455 223.722 272.368 223.937 270.471 222.947C269.555 222.469 268.306 222.953 267.478 221.902C267.324 221.706 266.271 222.172 265.657 222.398C264.981 222.647 264.483 222.651 263.788 222.197C262.98 221.669 261.948 221.374 260.898 221.989C260.459 222.246 259.848 222.316 259.322 222.295C257.863 222.238 256.408 222.087 254.951 221.975C254.177 221.916 253.834 222.353 253.722 223.052C253.459 223.038 253.195 223.024 252.932 223.01C252.319 221.936 251.287 222.082 250.327 222.187C249.634 222.263 248.955 222.53 248.798 221.501C249.666 220.92 250.671 220.661 251.489 219.843C252.013 219.318 253.552 219.282 254.337 219.655C255.926 220.41 257.582 219.466 259.089 220.177C262.009 219.503 264.845 220.318 267.7 220.703C268.342 220.79 268.943 221.187 269.422 221.384C270.547 221.079 271.559 220.804 272.777 220.474C272.83 221.195 272.863 221.629 272.902 222.156C274.03 222.373 275.14 222.598 276.088 221.584C276.656 220.976 277.235 221.028 277.884 221.559C278.458 222.029 279.161 222.338 279.75 222.792C280.38 223.279 280.976 223.577 281.8 223.245C281.929 223.192 282.286 223.705 282.537 223.956Z" fill="#F4CC2B"/>
<path d="M182.539 202.998C185.908 202.624 189.276 202.244 192.646 201.883C193.389 201.803 194.142 201.735 194.887 201.757C196.74 201.812 198.537 201.601 200.343 201.135C201.775 200.765 203.289 200.694 204.771 200.534C208.818 200.099 212.869 199.711 216.914 199.262C221.417 198.763 225.915 198.217 230.515 197.68C230.604 198.16 230.663 198.479 230.721 198.799C230.159 198.98 229.596 199.161 229.034 199.342C228.209 199.432 227.383 199.522 226.558 199.612C225.963 199.117 225.412 199.11 224.919 199.757C224.097 199.856 223.276 199.956 222.454 200.055C221.842 199.517 221.279 199.489 220.789 200.216C219.975 200.308 219.161 200.399 218.347 200.491C217.713 199.955 217.134 199.855 216.676 200.703C216.133 200.759 215.589 200.815 215.046 200.87C214.422 200.337 213.856 200.297 213.382 201.063C212.839 201.135 212.296 201.206 211.753 201.278C210.998 200.826 210.266 200.566 209.682 201.528C209.139 201.585 208.596 201.641 208.053 201.698C207.419 201.169 206.847 201.111 206.389 201.918C205.846 201.981 205.303 202.043 204.76 202.106C204.133 201.575 203.566 201.535 203.097 202.308C202.554 202.377 202.011 202.446 201.468 202.514C200.844 201.988 200.276 201.937 199.805 202.71C199.126 202.785 198.447 202.861 197.768 202.936C197.132 202.419 196.556 202.338 196.104 203.164C195.56 203.22 195.016 203.276 194.472 203.333C193.835 202.814 193.262 202.755 192.812 203.566C192.27 203.63 191.728 203.694 191.186 203.758C190.595 203.574 189.896 202.515 189.505 203.964C188.978 204.008 188.451 204.053 187.924 204.098C186.973 203.103 186.554 203.164 185.411 204.465C185.153 204.485 184.894 204.504 184.636 204.524C184.604 204.269 184.572 204.014 184.531 203.688C183.954 203.87 183.435 204.034 182.798 204.235C182.693 203.736 182.616 203.367 182.539 202.998Z" fill="#F4CE30"/>
<path d="M283.355 193.13C285.575 192.207 288.116 192.59 289.207 193.764C290.734 193.795 292.051 194.073 293.218 193.771C294.322 193.485 295.324 193.16 296.443 193.519C296.699 193.601 297.074 193.554 297.215 193.719C299.047 195.865 301.734 195.185 304.027 195.732C305.078 195.983 306.335 195.713 307.418 195.4C308.597 195.06 309.604 195.489 310.542 195.892C311.092 196.128 311.355 197.032 311.747 197.635C309.826 197.43 307.901 197.261 305.988 196.999C305.404 196.919 304.925 196.768 304.721 197.5C304.472 197.485 304.224 197.47 303.975 197.455C303.593 197.242 303.23 196.894 302.827 196.838C300.538 196.521 298.242 196.249 295.944 196.015C295.087 195.927 294.215 196.001 293.351 195.965C292.155 195.914 290.957 195.861 289.77 195.727C289.571 195.705 289.418 195.268 289.237 195.012C287.999 196.142 287.252 196.361 285.918 195.471C284.944 194.821 284.177 194.608 283.148 195.594C283.232 194.58 283.293 193.855 283.355 193.13Z" fill="#F4CE30"/>
<path d="M221.646 222.309C221.81 222.195 221.967 221.996 222.14 221.981C224.156 221.805 226.171 221.597 228.192 221.514C232.449 221.338 236.708 221.231 240.967 221.095C240.981 221.576 240.994 222.058 241.008 222.54C240.195 222.588 239.382 222.676 238.569 222.677C230.572 222.692 222.608 223.075 214.761 224.767C213.431 225.054 212.129 225.477 210.82 225.855C210.401 225.976 210.053 226.189 210.308 226.729C209.507 226.95 208.855 226.809 208.483 225.981C209.98 225.438 211.477 224.896 212.974 224.353C214.096 224.085 215.224 223.842 216.338 223.542C217.294 223.284 218.232 222.962 219.178 222.669C219.459 222.558 219.74 222.447 220.021 222.337C220.571 222.901 221.113 222.884 221.646 222.309Z" fill="#F5D34B"/>
<path d="M283.355 193.13C283.294 193.855 283.232 194.58 283.146 195.594C284.175 194.608 284.942 194.821 285.916 195.471C287.25 196.361 287.997 196.142 289.235 195.012C289.417 195.268 289.569 195.704 289.768 195.727C290.956 195.861 292.154 195.915 293.349 195.965C294.213 196.002 295.085 195.928 295.942 196.015C298.241 196.25 300.537 196.521 302.825 196.838C303.228 196.894 303.591 197.242 303.973 197.455C301.464 197.339 298.955 197.204 296.444 197.114C292.226 196.963 288.007 196.782 283.787 196.724C279.577 196.666 275.365 196.752 271.154 196.756C270.547 196.757 269.94 196.656 269.334 196.603C269.899 195.52 270.944 195.93 271.694 196.055C272.985 196.271 273.761 195.831 274.335 194.772C274.463 194.769 274.591 194.76 274.718 194.746C275.476 195.026 276.254 195.262 276.989 195.595C279.219 196.607 282.055 195.452 282.977 193.125C283.102 193.124 283.228 193.125 283.355 193.13Z" fill="#F6DA65"/>
<path d="M274.335 194.774C273.761 195.834 272.986 196.273 271.694 196.057C270.944 195.932 269.9 195.522 269.334 196.605C267.833 196.653 266.331 196.702 264.83 196.752C263.425 196.292 262.028 196.03 260.679 196.926C259.182 197.003 257.685 197.08 256.188 197.156C255.2 196.658 254.23 196.504 253.309 197.304C252.212 197.391 251.114 197.479 250.017 197.567C249.445 197.453 248.877 197.288 248.3 197.24C247.723 197.192 247.208 197.159 247.149 196.425C247.442 196.282 247.727 196.036 248.03 196.011C250.057 195.84 252.087 195.664 254.119 195.588C258.741 195.416 263.367 195.322 267.989 195.144C268.84 195.111 269.679 194.819 270.527 194.666C270.843 194.609 271.171 194.568 271.49 194.584C272.44 194.629 273.387 194.708 274.335 194.774Z" fill="#F4CE30"/>
<path d="M231.507 198.764C231.72 198.388 231.849 197.897 232.167 197.665C232.53 197.402 233.054 197.288 233.52 197.252C235.757 197.078 238 196.973 240.237 196.799C241.507 196.7 242.771 196.518 244.318 196.341C243.85 195.608 243.556 195.146 243.165 194.533C245.703 194.062 248.105 193.604 250.619 194.498C248.837 194.744 247.055 194.99 245.109 195.258C245.304 195.82 245.411 196.128 245.518 196.435C245.497 196.913 245.476 197.392 245.455 197.871C245.055 197.902 244.655 197.933 244.255 197.964C243.24 197.55 242.229 197.186 241.346 198.228C240.535 198.283 239.724 198.338 238.912 198.393C238.289 197.871 237.722 197.874 237.228 198.57C236.416 198.645 235.603 198.72 234.791 198.794C234.186 198.279 233.628 198.265 233.134 198.948C232.607 199.002 232.08 199.056 231.553 199.11C231.548 198.994 231.533 198.878 231.507 198.764Z" fill="#F4CE30"/>
<path d="M177.188 205.386C176.673 205.035 176.393 204.465 175.516 204.532C174.272 204.626 173.026 204.677 171.703 204.412C170.519 204.174 169.088 204.217 167.766 204.241C167.799 203.778 167.831 203.315 167.879 202.621C169.913 202.419 171.9 202.221 174.131 202C173.969 202.723 173.879 203.128 173.78 203.569C174.443 203.897 174.956 203.872 175.142 203.029C175.396 201.88 176.41 201.928 177.22 201.786C178.112 201.629 178.968 201.705 179.352 202.839C179.447 203.12 180.101 203.212 180.498 203.391C180.217 204.013 179.964 204.622 179.11 204.683C178.865 204.7 178.646 205.077 178.415 205.288C178.006 205.32 177.597 205.353 177.188 205.386Z" fill="#F4CD2C"/>
<path d="M304.72 197.501C304.925 196.769 305.403 196.92 305.987 197C307.9 197.262 309.825 197.431 311.746 197.636C311.885 197.64 312.023 197.645 312.162 197.649C313.395 197.918 314.628 198.188 315.861 198.458C317.801 198.999 319.74 199.546 321.683 200.076C322.331 200.253 322.992 200.387 323.647 200.54C324.081 200.986 324.515 201.432 324.949 201.879C324.492 201.821 324.005 201.846 323.582 201.694C318.044 199.709 312.325 198.575 306.488 197.963C305.888 197.9 305.308 197.659 304.72 197.501Z" fill="#F6DA65"/>
<path d="M336.44 222.646C336.558 222.483 336.639 222.261 336.798 222.167C339.442 220.607 340.725 218.048 341.855 215.364C341.943 215.154 342.24 215.032 342.439 214.869C342.536 219.059 340.388 221.921 336.989 224.02C336.415 224.375 335.761 224.601 335.144 224.885C334.842 223.714 336.174 223.488 336.44 222.646Z" fill="#F5D656"/>
<path d="M336.44 222.646C336.173 223.488 334.842 223.714 335.144 224.886C334.808 225.013 334.473 225.139 334.137 225.265C333.823 224.877 333.508 224.541 333.153 225.227L333.158 225.224C332.744 225.362 332.331 225.501 331.917 225.639L331.96 225.659C330.413 225.856 328.868 226.059 327.32 226.248C326.122 226.395 324.91 226.765 323.754 226.066C327.634 225.719 331.264 224.429 334.895 223.135C335.404 222.953 335.925 222.808 336.44 222.646Z" fill="#F9E793"/>
<path d="M248.798 221.501C248.955 222.53 249.634 222.263 250.327 222.187C251.288 222.082 252.32 221.935 252.932 223.01C250.599 222.889 248.267 222.769 245.934 222.649C245.93 222.266 245.925 221.883 245.921 221.499C246.88 221.5 247.839 221.5 248.798 221.501Z" fill="#F5D34B"/>
<path d="M178.415 205.287C178.646 205.075 178.865 204.699 179.11 204.682C179.964 204.621 180.217 204.012 180.498 203.39C181.178 203.259 181.859 203.128 182.539 202.998C182.616 203.367 182.693 203.736 182.797 204.235C183.434 204.034 183.953 203.87 184.53 203.688C184.571 204.014 184.603 204.269 184.635 204.524C182.562 204.778 180.489 205.032 178.415 205.287Z" fill="#F5D656"/>
<path d="M245.921 221.499C245.925 221.882 245.93 222.265 245.934 222.649C245.524 222.636 245.113 222.624 244.703 222.612C244.133 221.691 244.035 221.689 243.43 222.588C242.622 222.572 241.815 222.557 241.007 222.541C240.993 222.059 240.98 221.577 240.966 221.096C242.187 221.092 243.409 221.052 244.628 221.103C245.064 221.121 245.49 221.36 245.921 221.499Z" fill="#F4CC2B"/>
<path d="M324.948 201.879C324.514 201.433 324.08 200.986 323.646 200.54C325.219 201.109 326.802 201.654 328.362 202.256C328.986 202.497 329.588 202.823 330.149 203.189C330.633 203.504 330.761 203.924 330.134 204.279C329.369 203.918 328.604 203.556 327.839 203.195C327.471 202.385 326.813 202.156 325.984 202.272C325.638 202.142 325.293 202.01 324.948 201.879Z" fill="#F5CF35"/>
<path d="M245.454 197.872C245.475 197.393 245.496 196.915 245.517 196.436C246.061 196.432 246.606 196.428 247.15 196.424C247.209 197.158 247.724 197.192 248.301 197.24C248.878 197.288 249.446 197.453 250.018 197.567C248.496 197.668 246.975 197.77 245.454 197.872Z" fill="#F6DA65"/>
<path d="M260.68 196.925C262.029 196.029 263.426 196.291 264.831 196.751C263.447 196.809 262.063 196.867 260.68 196.925Z" fill="#F6DA65"/>
<path d="M106.494 195.556C107.711 195.926 108.47 196.776 108.956 197.91C107.675 197.607 106.921 196.753 106.494 195.556Z" fill="#F5D656"/>
<path d="M185.411 204.464C186.554 203.164 186.973 203.103 187.924 204.097C187.087 204.22 186.249 204.342 185.411 204.464Z" fill="#F5D656"/>
<path d="M253.309 197.304C254.23 196.503 255.2 196.658 256.188 197.156C255.229 197.205 254.269 197.254 253.309 197.304Z" fill="#F6DA65"/>
<path d="M241.344 198.229C242.227 197.187 243.238 197.551 244.253 197.965C243.284 198.052 242.314 198.14 241.344 198.229Z" fill="#F6DA65"/>
<path d="M109.237 198.1C110.467 198.159 111.061 198.945 111.415 200.005C110.329 199.782 109.675 199.064 109.237 198.1Z" fill="#F5D656"/>
<path d="M209.682 201.528C210.266 200.566 210.998 200.826 211.753 201.278C211.063 201.361 210.373 201.445 209.682 201.528Z" fill="#F5D656"/>
<path d="M231.507 198.764C231.533 198.879 231.548 198.995 231.553 199.112C230.714 199.188 229.875 199.265 229.035 199.342C229.597 199.161 230.159 198.981 230.722 198.799C230.983 198.787 231.245 198.775 231.507 198.764Z" fill="#F5D656"/>
<path d="M189.505 203.964C189.896 202.514 190.595 203.574 191.186 203.758C190.626 203.826 190.065 203.895 189.505 203.964Z" fill="#F5D656"/>
<path d="M192.812 203.565C193.263 202.754 193.835 202.813 194.472 203.332C193.919 203.41 193.366 203.487 192.812 203.565Z" fill="#F5D656"/>
<path d="M196.104 203.163C196.556 202.338 197.132 202.418 197.768 202.935C197.214 203.011 196.659 203.087 196.104 203.163Z" fill="#F5D656"/>
<path d="M237.226 198.571C237.72 197.875 238.288 197.872 238.91 198.394C238.349 198.453 237.788 198.512 237.226 198.571Z" fill="#F6DA65"/>
<path d="M233.133 198.95C233.626 198.267 234.185 198.28 234.79 198.796C234.237 198.847 233.685 198.898 233.133 198.95Z" fill="#F5D656"/>
<path d="M224.919 199.757C225.412 199.11 225.964 199.117 226.558 199.612C226.012 199.66 225.466 199.708 224.919 199.757Z" fill="#F5D656"/>
<path d="M220.789 200.216C221.279 199.488 221.842 199.517 222.454 200.055C221.899 200.109 221.344 200.163 220.789 200.216Z" fill="#F5D656"/>
<path d="M216.676 200.703C217.135 199.855 217.713 199.956 218.347 200.491C217.79 200.562 217.233 200.633 216.676 200.703Z" fill="#F5D656"/>
<path d="M213.383 201.063C213.856 200.297 214.423 200.338 215.047 200.87C214.492 200.935 213.937 200.999 213.383 201.063Z" fill="#F5D656"/>
<path d="M206.389 201.918C206.847 201.111 207.419 201.17 208.053 201.698C207.499 201.771 206.944 201.844 206.389 201.918Z" fill="#F5D656"/>
<path d="M203.097 202.307C203.566 201.534 204.133 201.574 204.76 202.105C204.206 202.172 203.652 202.24 203.097 202.307Z" fill="#F5D656"/>
<path d="M199.806 202.709C200.277 201.936 200.845 201.987 201.469 202.513C200.914 202.579 200.36 202.644 199.806 202.709Z" fill="#F5D656"/>
<path d="M325.983 202.273C326.813 202.157 327.47 202.386 327.838 203.196C327.22 202.888 326.602 202.58 325.983 202.273Z" fill="#F6DA65"/>
<path d="M243.43 222.587C244.034 221.689 244.133 221.691 244.703 222.611C244.279 222.603 243.854 222.595 243.43 222.587Z" fill="#F5D34B"/>
<path d="M225.753 228.516C225.385 229.016 225.118 228.834 224.892 228.387C225.179 228.431 225.466 228.473 225.753 228.516Z" fill="#F5D34B"/>
<path d="M342.289 210.442C341.879 210.213 341.664 209.951 342.145 209.574C342.193 209.863 342.241 210.153 342.289 210.442Z" fill="#F5D656"/>
<path d="M443.006 162C442.968 162.214 442.931 162.429 442.894 162.64C442.931 162.425 442.968 162.212 443.006 162Z" fill="#F6DA65"/>
<path d="M331.918 225.639C332.332 225.501 332.745 225.362 333.159 225.224C332.93 225.913 332.464 225.896 331.918 225.639Z" fill="#F5D34B"/>
<path d="M333.153 225.227C333.508 224.542 333.823 224.877 334.137 225.265C333.81 225.252 333.482 225.24 333.153 225.227Z" fill="#F5D34B"/>
<path d="M274.555 186.876C271.884 186.895 269.211 186.88 266.541 186.949C265.254 186.982 263.97 187.174 262.685 187.29C262.413 187.315 262.118 187.399 261.869 187.329C260.526 186.947 259.21 187.098 257.857 187.327C256.454 187.565 255.022 187.656 253.598 187.738C252.461 187.804 251.314 187.702 250.178 187.778C247.803 187.938 245.431 188.163 243.059 188.371C242.518 188.419 241.981 188.566 241.442 188.568C237.209 188.588 233.016 188.914 228.846 189.732C226.855 190.123 224.775 190.04 222.742 190.238C220.035 190.501 217.332 190.813 214.63 191.131C212.742 191.353 210.86 191.626 208.974 191.868C204.797 192.403 200.63 193.073 196.437 193.422C192.569 193.744 188.81 194.729 184.893 194.845C181.25 194.952 177.633 195.82 173.997 196.301C172.244 196.533 170.472 196.616 168.716 196.826C167.996 196.912 167.293 197.149 166.584 197.327C166.259 197.409 165.934 197.612 165.62 197.591C162.844 197.405 160.088 197.514 157.344 197.993C156.446 198.15 155.927 197.755 155.832 196.636C156.784 196.689 157.631 196.804 158.471 196.764C159.348 196.721 160.221 196.547 161.089 196.395C161.744 196.281 162.393 195.98 163.04 195.995C164.404 196.026 165.647 195.156 167.042 195.528C167.3 195.597 167.59 195.592 167.86 195.568C170.568 195.326 173.275 195.079 175.981 194.821C177.47 194.679 178.964 194.563 180.444 194.348C183.935 193.841 187.413 193.237 190.908 192.762C192.794 192.506 194.707 192.453 196.605 192.274C197.551 192.185 198.492 192.04 199.43 191.885C203.183 191.265 206.989 191.143 210.742 190.352C214.046 189.655 217.504 189.687 220.894 189.4C221.302 189.365 221.731 189.413 222.117 189.304C225.363 188.385 228.707 188.388 232.032 188.138C235.417 187.883 238.783 187.384 242.16 187.022C243.987 186.826 245.818 186.605 247.652 186.544C253.182 186.36 258.716 186.279 264.246 186.1C267.381 185.999 270.512 185.784 273.645 185.62C273.95 186.038 274.253 186.457 274.555 186.876Z" fill="#F5CF35"/>
<path d="M446.072 149.435C445.906 150.537 446.092 151.739 445.052 152.814C444.531 151.22 445.663 150.422 446.072 149.435Z" fill="#030303"/>
<path d="M446.464 148.382L446.547 148.218L446.444 148.199L446.464 148.382Z" fill="#030303"/>
<path d="M317.918 226.022C316.428 226.158 314.932 226.457 313.451 226.396C310.7 226.283 307.947 226.045 305.217 225.686C304.003 225.526 302.844 224.945 301.554 224.52C301.04 224.779 300.408 225.185 299.717 225.412C299.312 225.545 298.567 225.567 298.402 225.334C297.81 224.504 296.857 224.926 296.341 224.649C294.476 223.647 292.782 224.772 291.025 224.702C290.314 224.673 289.845 224.604 289.53 223.972C289.786 223.509 289.961 222.97 290.313 222.598C291.183 221.679 291.363 221.733 292.074 222.639C293.483 222.56 294.703 222.491 296.301 222.401C296.312 222.388 296.596 222.048 296.826 221.772C297.434 221.962 298.049 222.383 298.549 222.273C301.186 221.692 303.518 222.953 305.99 223.335C307.072 223.502 308.246 223.173 309.137 224.182C309.273 224.336 309.888 224.061 310.283 223.991C311.015 223.861 311.777 223.538 312.475 223.641C315.943 224.151 319.389 224.151 322.849 223.59C323.439 223.494 324.07 223.651 324.681 223.69C324.63 223.89 324.581 224.092 324.531 224.294C323.598 224.595 322.683 225.01 321.727 225.166C320.801 225.317 319.822 225.132 318.885 225.243C318.537 225.284 318.239 225.75 317.918 226.022Z" fill="#F4CC2B"/>
<path d="M167.357 204.644C166.207 205.616 165.017 206.427 163.373 205.989C163.001 205.89 162.49 205.851 162.189 206.03C160.731 206.893 159.145 206.666 157.589 206.684C155.409 206.709 153.229 206.691 151.049 206.699C150.709 206.7 150.352 206.684 150.031 206.774C148.33 207.252 146.646 207.434 144.845 207.325C142.327 207.172 139.784 207.474 137.252 207.496C133.353 207.53 129.57 206.672 125.784 205.868C126.164 204.999 126.931 204.991 127.695 205.043C129.455 205.163 131.218 205.269 132.971 205.46C134.947 205.675 136.921 204.99 138.941 205.77C139.969 206.167 141.309 205.763 142.507 205.71C143.429 205.669 144.35 205.612 145.622 205.543C145.791 205.415 146.264 204.79 146.801 204.729C147.28 204.675 147.804 205.31 148.354 205.521C148.841 205.708 149.391 205.807 149.913 205.808C151.233 205.809 152.553 205.746 153.871 205.677C154.186 205.66 154.498 205.527 154.807 205.433C155.188 205.317 155.664 204.975 155.928 205.097C157.841 205.987 159.123 204.681 160.633 203.752C160.934 204.145 161.203 204.497 161.473 204.849C161.605 204.842 161.818 204.884 161.854 204.822C162.504 203.717 163.839 204.3 164.691 203.679C164.79 203.607 165.212 203.79 165.326 203.96C165.84 204.727 166.618 204.607 167.357 204.644Z" fill="#F4CD2C"/>
<path d="M230.286 212.851C230.86 212.715 231.433 212.467 232.008 212.461C235.639 212.425 239.272 212.39 242.902 212.459C246.791 212.533 250.679 212.712 254.566 212.862C257.769 212.985 260.975 213.079 264.173 213.289C265.999 213.409 267.812 213.739 269.631 213.972C269.969 214.015 270.308 214.069 270.648 214.083C274.262 214.227 277.878 214.325 281.489 214.52C283.32 214.619 285.14 214.901 286.967 215.075C287.993 215.172 289.023 215.217 290.338 215.304C289.461 216.441 288.613 216.114 287.849 216.059C286.767 215.982 285.69 215.822 284.608 215.74C280.944 215.463 277.278 215.204 273.613 214.943C273.204 214.914 272.792 214.914 272.381 214.915C267.489 214.918 262.61 214.701 257.752 214.104C257.684 214.096 257.615 214.097 257.547 214.095C253.248 213.956 248.948 213.835 244.65 213.669C242.495 213.586 240.344 213.356 238.189 213.312C236.835 213.284 235.478 213.504 234.121 213.563C232.824 213.619 231.525 213.611 230.227 213.631C230.247 213.37 230.266 213.11 230.286 212.851Z" fill="#F4CE30"/>
<path d="M315.064 217.713C314.3 217.874 313.532 218.187 312.771 218.169C310.113 218.105 307.455 217.974 304.804 217.779C302.161 217.585 299.527 217.258 296.885 217.043C295.727 216.949 294.557 216.944 293.394 216.979C292.319 217.011 291.565 216.608 290.963 215.39C292.208 215.39 293.319 215.345 294.425 215.403C295.509 215.46 296.586 215.635 297.668 215.733C299.294 215.88 300.947 215.873 302.545 216.167C306.016 216.806 309.506 216.421 312.983 216.577C313.684 216.608 314.374 216.892 315.069 217.058C315.067 217.277 315.066 217.495 315.064 217.713Z" fill="#F4CE30"/>
<path d="M282.976 193.127C282.054 195.454 279.218 196.609 276.988 195.597C276.254 195.264 275.476 195.028 274.717 194.748C274.751 194.152 274.785 193.557 274.821 192.905C276.317 192.501 277.586 192.465 278.51 194.112C279.876 192.817 281.32 192.312 282.976 193.127Z" fill="#F4CE30"/>
<path d="M217.546 214.517C212.348 215.823 207.15 217.128 202.008 218.42C203.082 217.289 205.265 216.211 207.52 215.753C210.838 215.079 214.158 214.419 217.478 213.752C217.501 214.006 217.523 214.261 217.546 214.517Z" fill="#F9EBA6"/>
<path d="M317.125 216.983C319.99 216.523 322.855 216.063 325.72 215.603C326.449 215.489 327.423 215.776 327.471 214.54C328.004 214.457 328.536 214.373 329.158 214.275C329.449 215.353 328.654 215.683 327.947 216.034C325.639 217.179 323.149 217.563 320.614 217.7C319.455 217.763 318.291 217.722 317.129 217.728C317.128 217.48 317.126 217.232 317.125 216.983Z" fill="#F9EBA6"/>
<path d="M217.546 214.517C217.523 214.262 217.501 214.007 217.478 213.752C219.098 213.585 220.716 213.368 222.34 213.261C224.986 213.087 227.637 212.984 230.286 212.852C230.266 213.112 230.247 213.372 230.227 213.631C226.64 213.459 223.1 213.847 219.574 214.466C218.915 214.58 218.223 214.504 217.546 214.517Z" fill="#F6DA65"/>
<path d="M288.306 223.971C287.937 225.28 286.769 224.983 286.214 224.584C285.277 223.911 284.339 224.01 283.358 223.963C283.422 223.774 283.432 223.478 283.558 223.415C284.229 223.083 284.929 222.809 285.792 222.442C286.505 222.875 287.405 223.423 288.306 223.971Z" fill="#F4CC2B"/>
<path d="M326.453 223.898C328.811 223.242 331.168 222.585 333.668 221.889C332.489 223.279 328.92 224.333 326.453 223.898Z" fill="#F9E793"/>
<path d="M315.861 198.458C314.628 198.188 313.395 197.919 312.162 197.649C312.544 196.829 312.941 195.937 314.061 196.197C314.629 196.329 315.229 196.674 315.616 197.103C315.878 197.393 315.791 197.996 315.861 198.458Z" fill="#F4CE30"/>
<path d="M211.772 222.303C212.042 222.112 212.289 221.812 212.587 221.747C214.475 221.33 216.375 220.965 218.27 220.583C218.309 220.749 218.348 220.915 218.387 221.081C216.168 221.618 213.949 222.154 211.73 222.691C211.745 222.561 211.759 222.432 211.772 222.303Z" fill="#F5D34B"/>
<path d="M332.41 218.736C330.778 219.258 329.319 220.333 327.144 220.202C327.64 219.858 327.89 219.631 328.183 219.49C329.2 219 330.213 218.488 331.27 218.1C331.611 217.974 332.083 218.204 332.495 218.271C332.466 218.426 332.438 218.581 332.41 218.736Z" fill="#F6DA65"/>
<path d="M205.831 224.884C207.045 223.676 208.52 223.036 210.245 222.945C208.932 223.936 207.457 224.574 205.831 224.884Z" fill="#F9E793"/>
<path d="M212.972 224.353C211.475 224.896 209.978 225.438 208.481 225.981C208.155 225.981 207.83 225.981 207.442 225.981C208.499 224.793 209.566 224.377 213.064 223.741C213.033 223.946 213.003 224.15 212.972 224.353Z" fill="#F9EBA6"/>
<path d="M212.972 224.353C213.002 224.15 213.032 223.946 213.064 223.741C215.102 223.383 217.139 223.026 219.176 222.669C218.23 222.962 217.292 223.284 216.336 223.541C215.223 223.842 214.094 224.085 212.972 224.353Z" fill="#F6DA65"/>
<path d="M208.098 220.301C206.854 220.868 205.611 221.435 204.367 222.002C204.307 221.861 204.247 221.721 204.186 221.58C205.331 220.668 206.541 219.9 208.088 219.892C208.091 220.029 208.095 220.165 208.098 220.301Z" fill="#F6DA65"/>
<path d="M121.674 204.608C119.864 204.629 119.864 204.629 119.603 203.397C120.046 203.537 120.522 203.618 120.923 203.837C121.224 204.001 121.427 204.344 121.674 204.608Z" fill="#F4CD2C"/>
<path d="M327.472 214.54C327.424 215.776 326.45 215.489 325.721 215.603C325.992 214.734 326.697 214.579 327.472 214.54Z" fill="#F4CE30"/>
<path d="M317.125 216.983C317.126 217.232 317.128 217.48 317.129 217.729C316.687 218.329 316.255 218.342 315.834 217.707C315.814 217.479 315.794 217.25 315.774 217.021C316.225 217.008 316.675 216.996 317.125 216.983Z" fill="#F4CE30"/>
<path d="M119.605 203.4C118.946 203.343 118.105 203.662 117.937 202.592C118.597 202.644 119.467 202.266 119.605 203.4Z" fill="#F4CD2C"/>
<path d="M117.143 202.568C116.729 202.302 116.316 202.035 115.902 201.769C116.995 200.98 116.949 201.96 117.143 202.568Z" fill="#F4CD2C"/>
<path d="M154.063 197.782C153.844 197.845 153.617 197.971 153.408 197.947C153.278 197.932 153.05 197.606 153.08 197.561C153.211 197.364 153.405 197.111 153.603 197.084C153.831 197.054 154.089 197.24 154.334 197.333C154.243 197.483 154.153 197.633 154.063 197.782Z" fill="#F5CF35"/>
<path d="M123.726 205.447C123.314 205.174 122.901 204.901 122.489 204.628C123.087 204.62 123.687 204.609 123.726 205.447Z" fill="#F4CD2C"/>
<path d="M324.531 224.293C324.58 224.091 324.63 223.889 324.681 223.689C324.831 223.781 324.979 223.871 325.127 223.961C324.928 224.072 324.73 224.183 324.531 224.293Z" fill="#F9E793"/>
<path d="M241.634 194.639C241.585 194.754 241.535 194.869 241.486 194.984C241.371 194.934 241.192 194.91 241.159 194.828C241.126 194.745 241.24 194.605 241.289 194.49C241.404 194.539 241.519 194.589 241.634 194.639Z" fill="#F4CE30"/>
<path d="M221.646 222.309C221.113 222.884 220.571 222.901 220.02 222.336C220.562 222.327 221.104 222.318 221.646 222.309Z" fill="#F6DA65"/>
<path d="M315.775 217.021C315.795 217.25 315.815 217.478 315.835 217.707C315.578 217.709 315.321 217.712 315.064 217.714C315.066 217.495 315.067 217.277 315.069 217.059C315.304 217.047 315.539 217.034 315.775 217.021Z" fill="#F9EBA6"/>
<path d="M211.772 222.303C211.759 222.432 211.745 222.561 211.73 222.69C211.568 222.648 211.406 222.607 211.244 222.565C211.42 222.478 211.596 222.39 211.772 222.303Z" fill="#F9E793"/>
</svg>
